<svg id="visual" viewBox="0 0 900 600" width="900" height="600" xmlns="http://www.w3.org/2000/svg" xmlns:xlink="http://www.w3.org/1999/xlink" version="1.1"><rect x="0" y="0" width="900" height="600" fill="#000000"></rect><path d="M0 422L21.5 421.7C43 421.3 86 420.7 128.8 425C171.7 429.3 214.3 438.7 257.2 437C300 435.3 343 422.7 385.8 434.5C428.7 446.3 471.3 482.7 514.2 481.8C557 481 600 443 642.8 424.7C685.7 406.3 728.3 407.7 771.2 402.5C814 397.3 857 385.7 878.5 379.8L900 374L900 601L878.5 601C857 601 814 601 771.2 601C728.3 601 685.7 601 642.8 601C600 601 557 601 514.2 601C471.3 601 428.7 601 385.8 601C343 601 300 601 257.2 601C214.3 601 171.7 601 128.8 601C86 601 43 601 21.5 601L0 601Z" fill="#0077FF" stroke-linecap="round" stroke-linejoin="miter"></path></svg>